<svg id="Layer_1" data-name="Layer 1" xmlns="http://www.w3.org/2000/svg" viewBox="0 0 1366 1500"><rect x="587.44" y="408.82" width="248.5" height="293.83" rx="20.5" style="fill:#a80038"/><path d="M622,428.38c44,3.46,96.2-10.26,178.41,2.47a2.58,2.58,0,0,1,2.15,2.14c6,39,6.31,79.9,3.56,115.65a2.55,2.55,0,0,1-1.74,2.22c-15.17,5-23,7.54-24.72,15.15-2,8.57,12.72,21,26.34,25.06a2.53,2.53,0,0,1,1.76,2.46c-.44,29.12-1,53.36-1.47,82.47a2.52,2.52,0,0,1-2.09,2.48c-11.69,1.77-34.32-8.31-52.48-28.4-5.75-6.37-12.27-11.07-14.89-16.76-12.52-20.27-22.62-32.19-34.59-27.67-1.71.65-4.64,4.09-3.05,9.69a5.62,5.62,0,0,0,.38.78c10.34,23.64,23,48.33,42.21,64.2,1.52,1.25.12,3.86-1.85,4a510,510,0,0,1-119.36-3.93l-2.8-.43a2.61,2.61,0,0,1-2.16-2.64c1.6-146.17,4.53-223.86,6-244.87C621.68,431.72,620.05,428.23,622,428.38Z" style="fill:#fff"/><path d="M723.52,510.26c.2,15.2-.43,27.94-11.8,28.09-13.77.17-12.35-13.17-12.54-28.38s-1.6-30.5,13.9-30.71C728.91,479.06,723.33,495.05,723.52,510.26Z" style="fill:#a80038"/><text transform="translate(445.81 824.26)" style="font-size:140.6630096435547px;fill:#111;font-family:ArialRoundedMTBold, Arial Rounded MT Bold">Routela</text><text transform="translate(529.71 880.92)" style="font-size:31.25844383239746px;fill:#a80038;font-family:ArialRoundedMTBold, Arial Rounded MT Bold">ROUTE YOUR DREAM</text></svg>